<?xml version="1.0" encoding="UTF-8"?><svg id="Calque_1" xmlns="http://www.w3.org/2000/svg" viewBox="0 0 20 20"><defs><style>.cls-1{fill:#fff;stroke-width:0px;}</style></defs><path class="cls-1" d="m10,10c-1.38,0-2.55-.49-3.53-1.47s-1.47-2.16-1.47-3.53.49-2.55,1.47-3.53c.98-.98,2.16-1.47,3.53-1.47s2.55.49,3.53,1.47c.98.98,1.47,2.16,1.47,3.53s-.49,2.55-1.47,3.53c-.98.98-2.16,1.47-3.53,1.47ZM0,20v-3.5c0-.71.18-1.36.55-1.95.36-.59.85-1.05,1.45-1.36,1.29-.65,2.6-1.13,3.94-1.45s2.69-.48,4.06-.48,2.73.16,4.06.48,2.65.81,3.94,1.45c.6.31,1.09.77,1.45,1.36.36.59.55,1.24.55,1.95v3.5H0Zm2.5-2.5h15v-1c0-.23-.06-.44-.17-.62-.11-.19-.27-.33-.45-.44-1.12-.56-2.26-.98-3.41-1.27-1.15-.28-2.3-.42-3.47-.42s-2.32.14-3.47.42c-1.15.28-2.28.7-3.41,1.27-.19.1-.34.25-.45.44-.11.19-.17.4-.17.62v1Zm7.5-10c.69,0,1.28-.24,1.77-.73.49-.49.73-1.08.73-1.77s-.24-1.28-.73-1.77c-.49-.49-1.08-.73-1.77-.73s-1.28.24-1.77.73c-.49.49-.73,1.08-.73,1.77s.24,1.28.73,1.77c.49.49,1.08.73,1.77.73Z"/></svg>