<?xml version="1.0" encoding="utf-8"?>
<!-- Generator: Adobe Illustrator 28.0.0, SVG Export Plug-In . SVG Version: 6.00 Build 0)  -->
<svg version="1.1" id="Calque_1" xmlns="http://www.w3.org/2000/svg" xmlns:xlink="http://www.w3.org/1999/xlink" x="0px" y="0px"
	 viewBox="0 0 28.5 31.3" style="enable-background:new 0 0 28.5 31.3;" xml:space="preserve">
<style type="text/css">
	.st0{clip-path:url(#SVGID_00000023281613777415527250000015686116222216820887_);}
	.st1{fill:#FFFFFF;}
</style>
<g>
	<defs>
		<rect id="SVGID_1_" width="28.5" height="31.4"/>
	</defs>
	<clipPath id="SVGID_00000099653314590967395900000005477125709559234698_">
		<use xlink:href="#SVGID_1_"  style="overflow:visible;"/>
	</clipPath>
	<g style="clip-path:url(#SVGID_00000099653314590967395900000005477125709559234698_);">
		<path class="st1" d="M20.6,23.5c0.7,0,1.2-0.2,1.7-0.7c0.5-0.5,0.7-1,0.7-1.7s-0.2-1.2-0.7-1.7c-0.5-0.5-1-0.7-1.7-0.7
			c-0.6,0-1.2,0.2-1.7,0.7c-0.5,0.5-0.7,1-0.7,1.7s0.2,1.2,0.7,1.7C19.4,23.3,19.9,23.5,20.6,23.5z M20.6,28.2
			c0.8,0,1.6-0.2,2.3-0.6c0.7-0.4,1.2-0.9,1.7-1.5c-0.6-0.3-1.2-0.6-1.9-0.8c-0.7-0.2-1.3-0.3-2.1-0.3c-0.7,0-1.4,0.1-2.1,0.3
			c-0.7,0.2-1.3,0.4-1.9,0.8c0.4,0.6,1,1.1,1.7,1.5C19,28,19.8,28.2,20.6,28.2z M12.7,31.4c-3.7-0.9-6.7-3-9.1-6.3
			C1.2,21.9,0,18.2,0,14.3V4.7L12.7,0l12.7,4.7v8.9c-0.5-0.2-1-0.4-1.6-0.6c-0.5-0.2-1.1-0.3-1.6-0.4V6.9l-9.5-3.5L3.2,6.9v7.4
			c0,1.2,0.2,2.5,0.5,3.7C4,19.2,4.4,20.4,5,21.5c0.6,1.1,1.3,2.1,2.2,3.1C8,25.5,9,26.3,10,26.9c0.3,0.8,0.7,1.6,1.2,2.4
			c0.5,0.8,1,1.4,1.6,2C12.8,31.3,12.7,31.3,12.7,31.4C12.7,31.4,12.7,31.4,12.7,31.4z M20.6,31.4c-2.2,0-4.1-0.8-5.6-2.3
			c-1.6-1.5-2.3-3.4-2.3-5.6s0.8-4,2.3-5.6c1.5-1.5,3.4-2.3,5.6-2.3c2.2,0,4.1,0.8,5.6,2.3c1.6,1.5,2.3,3.4,2.3,5.6s-0.8,4-2.3,5.6
			C24.7,30.6,22.8,31.4,20.6,31.4z"/>
	</g>
</g>
</svg>
