<?xml version="1.0" encoding="UTF-8"?><svg id="Calque_1" xmlns="http://www.w3.org/2000/svg" viewBox="0 0 54 44.56"><defs><style>.cls-1{fill:#fff;fill-rule:evenodd;stroke-width:0px;}</style></defs><path class="cls-1" d="m3.25.44C2.39-.25,1.13-.11.44.75-.25,1.61-.11,2.87.75,3.56l25,20,1.25,1,1.25-1L53.25,3.56c.86-.69,1-1.95.31-2.81-.69-.86-1.95-1-2.81-.31l-23.75,19L3.25.44Zm0,20c-.86-.69-2.12-.55-2.81.31-.69.86-.55,2.12.31,2.81l25,20,1.25,1,1.25-1,25-20c.86-.69,1-1.95.31-2.81-.69-.86-1.95-1-2.81-.31l-23.75,19L3.25,20.44Z"/></svg>