<?xml version="1.0" encoding="UTF-8"?><svg id="Calque_1" xmlns="http://www.w3.org/2000/svg" viewBox="0 0 25 20"><defs><style>.cls-1{fill:#fff;stroke-width:0px;}</style></defs><path class="cls-1" d="m5,20c-1.38,0-2.55-.49-3.53-1.47-.98-.98-1.47-2.16-1.47-3.53V5c0-1.38.49-2.55,1.47-3.53.98-.98,2.16-1.47,3.53-1.47h15c1.38,0,2.55.49,3.53,1.47.98.98,1.47,2.16,1.47,3.53v10c0,1.38-.49,2.55-1.47,3.53-.98.98-2.16,1.47-3.53,1.47H5Zm0-15h15c.46,0,.9.05,1.31.16s.81.27,1.19.5v-.66c0-.69-.24-1.28-.73-1.77-.49-.49-1.08-.73-1.77-.73H5c-.69,0-1.28.24-1.77.73-.49.49-.73,1.08-.73,1.77v.66c.38-.23.77-.4,1.19-.5.42-.1.85-.16,1.31-.16Zm-2.31,4.06l13.91,3.38c.19.04.38.04.56,0,.19-.04.36-.12.53-.25l4.34-3.62c-.23-.31-.52-.57-.88-.77-.35-.2-.74-.3-1.16-.3H5c-.54,0-1.02.14-1.42.42-.41.28-.7.66-.89,1.14Z"/></svg>